<svg width="1600" height="1000" viewBox="0 0 1600 1000" fill="none" xmlns="http://www.w3.org/2000/svg">
  <defs>
    <linearGradient id="bg" x1="0" y1="0" x2="1600" y2="1000" gradientUnits="userSpaceOnUse">
      <stop stop-color="#111733"/>
      <stop offset="0.55" stop-color="#0b1024"/>
      <stop offset="1" stop-color="#050714"/>
    </linearGradient>
    <linearGradient id="accent" x1="240" y1="180" x2="1360" y2="820" gradientUnits="userSpaceOnUse">
      <stop stop-color="#6366F1" stop-opacity="0.85"/>
      <stop offset="0.5" stop-color="#22D3EE" stop-opacity="0.55"/>
      <stop offset="1" stop-color="#A855F7" stop-opacity="0.6"/>
    </linearGradient>
    <filter id="glow" x="-50" y="-50" width="1700" height="1100" filterUnits="userSpaceOnUse" color-interpolation-filters="sRGB">
      <feGaussianBlur stdDeviation="24" result="blur"/>
      <feColorMatrix in="blur" type="matrix" values="1 0 0 0 0  0 1 0 0 0  0 0 1 0 0  0 0 0 0.7 0"/>
      <feMerge>
        <feMergeNode/>
        <feMergeNode in="SourceGraphic"/>
      </feMerge>
    </filter>
  </defs>

  <rect width="1600" height="1000" rx="40" fill="url(#bg)"/>

  <!-- window chrome -->
  <rect x="120" y="110" width="1360" height="780" rx="28" fill="#0B1024" stroke="#1F2747" stroke-width="2"/>
  <rect x="120" y="110" width="1360" height="72" rx="28" fill="#111733"/>
  <circle cx="170" cy="146" r="8" fill="#F87171"/>
  <circle cx="198" cy="146" r="8" fill="#FBBF24"/>
  <circle cx="226" cy="146" r="8" fill="#34D399"/>

  <!-- content blocks -->
  <g filter="url(#glow)">
    <rect x="180" y="230" width="920" height="96" rx="18" fill="url(#accent)" opacity="0.25" stroke="#2D3766"/>
    <rect x="180" y="350" width="1040" height="64" rx="16" fill="#111733" stroke="#1F2747"/>
    <rect x="180" y="434" width="820" height="64" rx="16" fill="#111733" stroke="#1F2747"/>
    <rect x="180" y="518" width="980" height="64" rx="16" fill="#111733" stroke="#1F2747"/>
    <rect x="180" y="602" width="760" height="64" rx="16" fill="#111733" stroke="#1F2747"/>
    <rect x="180" y="686" width="900" height="64" rx="16" fill="#111733" stroke="#1F2747"/>
    <rect x="1140" y="230" width="280" height="520" rx="20" fill="#0F1633" stroke="#1F2747"/>
    <rect x="1170" y="260" width="220" height="14" rx="7" fill="#2D3766"/>
    <rect x="1170" y="292" width="180" height="14" rx="7" fill="#253058"/>
    <rect x="1170" y="334" width="200" height="14" rx="7" fill="#253058"/>
    <rect x="1170" y="376" width="160" height="14" rx="7" fill="#253058"/>
  </g>

  <text x="180" y="840" fill="#8B93B8" font-family="ui-sans-serif, system-ui, -apple-system, Segoe UI, Roboto, Helvetica Neue, Arial" font-size="26">
    Screenshot placeholder (UI mock)
  </text>
</svg>
